<svg width="43" height="22" viewBox="0 0 43 22" fill="none" xmlns="http://www.w3.org/2000/svg">
<path fill-rule="evenodd" clip-rule="evenodd" d="M7 1C7 0.447715 7.44772 -3.91405e-08 8 -8.74228e-08L42 -3.0598e-06C42.5523 -3.10808e-06 43 0.447712 43 0.999997C43 1.55228 42.5523 2 42 2L8 2C7.44772 2 7 1.55228 7 1Z" fill="black"/>
<path fill-rule="evenodd" clip-rule="evenodd" d="M7 21C7 20.4477 7.44772 20 8 20L42 20C42.5523 20 43 20.4477 43 21C43 21.5523 42.5523 22 42 22L8 22C7.44772 22 7 21.5523 7 21Z" fill="black"/>
<path fill-rule="evenodd" clip-rule="evenodd" d="M8.74228e-08 11C3.91405e-08 10.4477 0.447715 10 1 10L42 10C42.5523 10 43 10.4477 43 11C43 11.5523 42.5523 12 42 12L1 12C0.447715 12 1.35705e-07 11.5523 8.74228e-08 11Z" fill="black"/>
</svg>
