<svg width="55" height="55" viewBox="0 0 55 55" fill="none" xmlns="http://www.w3.org/2000/svg">
<circle cx="27.5" cy="27.5" r="27.5" fill="#96F4FF"/>
<mask id="mask0_636_103" style="mask-type:alpha" maskUnits="userSpaceOnUse" x="12" y="13" width="32" height="33">
<rect x="12" y="13.3894" width="31.987" height="31.987" fill="#D9D9D9"/>
</mask>
<g mask="url(#mask0_636_103)">
<path d="M29.326 28.0502V20.0534H31.9915V23.5187L38.6555 16.8547L40.5214 18.7206L33.8574 25.3846H37.3227V28.0502H29.326ZM38.5889 41.3781C35.8122 41.3781 33.0689 40.7728 30.3589 39.5622C27.6489 38.3515 25.1832 36.6356 22.9619 34.4143C20.7406 32.1929 19.0246 29.7273 17.814 27.0173C16.6034 24.3073 15.998 21.5639 15.998 18.7873C15.998 18.3874 16.1313 18.0542 16.3979 17.7877C16.6644 17.5211 16.9976 17.3879 17.3975 17.3879H22.7953C23.1063 17.3879 23.3839 17.4934 23.6283 17.7044C23.8726 17.9154 24.017 18.1653 24.0614 18.4541L24.9277 23.1189C24.9722 23.4743 24.9611 23.7741 24.8944 24.0185C24.8278 24.2628 24.7056 24.4739 24.5279 24.6516L21.2959 27.9169C21.7402 28.7388 22.2677 29.5329 22.8786 30.2993C23.4894 31.0656 24.1614 31.8042 24.8944 32.515C25.583 33.2036 26.305 33.8423 27.0602 34.4309C27.8155 35.0196 28.6151 35.5582 29.4592 36.0469L32.5913 32.9149C32.7912 32.7149 33.0522 32.565 33.3743 32.4651C33.6964 32.3651 34.0129 32.3373 34.3239 32.3818L38.9221 33.3147C39.233 33.4036 39.4885 33.5646 39.6884 33.7978C39.8883 34.0311 39.9883 34.2921 39.9883 34.5809V39.9787C39.9883 40.3785 39.855 40.7117 39.5884 40.9783C39.3219 41.2448 38.9887 41.3781 38.5889 41.3781ZM20.0297 25.3846L22.2288 23.1855L21.6624 20.0534H18.6969C18.808 20.9642 18.9635 21.8638 19.1634 22.7523C19.3633 23.6409 19.6521 24.5183 20.0297 25.3846ZM31.9582 37.3131C32.8245 37.6907 33.7075 37.9906 34.6071 38.2127C35.5068 38.4348 36.412 38.5792 37.3227 38.6459V35.7137L34.1906 35.0807L31.9582 37.3131Z" fill="black"/>
</g>
</svg>
