<svg width="55" height="55" viewBox="0 0 55 55" fill="none" xmlns="http://www.w3.org/2000/svg">
<circle cx="27.5" cy="27.5" r="27.5" fill="#96F4FF"/>
<mask id="mask0_636_104" style="mask-type:alpha" maskUnits="userSpaceOnUse" x="13" y="12" width="32" height="33">
<rect x="13" y="12.0322" width="31.987" height="31.987" fill="#D9D9D9"/>
</mask>
<g mask="url(#mask0_636_104)">
<path d="M16.998 38.688V36.0224H32.9915V38.688H16.998ZM34.3243 29.3584C32.4806 29.3584 30.9091 28.7087 29.6096 27.4092C28.3101 26.1098 27.6604 24.5382 27.6604 22.6945C27.6604 20.8508 28.3101 19.2792 29.6096 17.9797C30.9091 16.6803 32.4806 16.0305 34.3243 16.0305C36.168 16.0305 37.7396 16.6803 39.0391 17.9797C40.3385 19.2792 40.9883 20.8508 40.9883 22.6945C40.9883 24.5382 40.3385 26.1098 39.0391 27.4092C37.7396 28.7087 36.168 29.3584 34.3243 29.3584ZM16.998 28.0256V25.3601H25.3946C25.5501 25.8487 25.7278 26.3152 25.9277 26.7595C26.1277 27.2037 26.372 27.6258 26.6608 28.0256H16.998ZM16.998 33.3568V30.6912H29.5263C30.0372 31.0022 30.5814 31.2632 31.159 31.4742C31.7365 31.6853 32.3474 31.8352 32.9915 31.9241V33.3568H16.998ZM33.6579 26.6928H34.9907V21.3617H33.6579V26.6928ZM34.3243 20.0289C34.502 20.0289 34.6575 19.9623 34.7908 19.829C34.9241 19.6957 34.9907 19.5402 34.9907 19.3625C34.9907 19.1848 34.9241 19.0293 34.7908 18.896C34.6575 18.7627 34.502 18.6961 34.3243 18.6961C34.1466 18.6961 33.9911 18.7627 33.8579 18.896C33.7246 19.0293 33.6579 19.1848 33.6579 19.3625C33.6579 19.5402 33.7246 19.6957 33.8579 19.829C33.9911 19.9623 34.1466 20.0289 34.3243 20.0289Z" fill="black"/>
</g>
</svg>
