<svg width="98" height="41" viewBox="0 0 98 41" fill="none" xmlns="http://www.w3.org/2000/svg">
<g id="Group">
<g id="Group_2">
<path id="Vector" d="M97.8838 40.7601H59.0551V1.252H41.1626V40.7601H0V39.892H40.2971V0.383881H59.9206V39.892H97.8838V40.7601Z" fill="#1A3643"/>
<path id="Vector_2" d="M41.1655 40.7601L40.5596 40.1409L49.8636 30.9446V10.5293L40.4702 1.07551L41.0847 0.462036L50.7291 10.1705V31.3092L41.1655 40.7601Z" fill="#1A3643"/>
</g>
<g id="Group_3">
<path id="Vector_3" d="M50.2963 21.2101C50.599 21.2101 50.8444 20.9639 50.8444 20.6603C50.8444 20.3566 50.599 20.1104 50.2963 20.1104C49.9936 20.1104 49.7482 20.3566 49.7482 20.6603C49.7482 20.9639 49.9936 21.2101 50.2963 21.2101Z" fill="#1A3643"/>
<path id="Vector_4" d="M50.2964 21.5023C49.8348 21.5023 49.4597 21.1262 49.4597 20.6632C49.4597 20.2002 49.8348 19.824 50.2964 19.824C50.7579 19.824 51.133 20.2002 51.133 20.6632C51.133 21.1262 50.7579 21.5023 50.2964 21.5023ZM50.2964 20.3998C50.1521 20.3998 50.0367 20.5185 50.0367 20.6603C50.0367 20.8021 50.155 20.9207 50.2964 20.9207C50.4377 20.9207 50.556 20.8021 50.556 20.6603C50.556 20.5185 50.4377 20.3998 50.2964 20.3998Z" fill="#1A3643"/>
</g>
</g>
</svg>
