<svg width="55" height="55" viewBox="0 0 55 55" fill="none" xmlns="http://www.w3.org/2000/svg">
<circle cx="27.5" cy="27.5" r="27.5" fill="#96F4FF"/>
<mask id="mask0_636_102" style="mask-type:alpha" maskUnits="userSpaceOnUse" x="12" y="13" width="32" height="32">
<rect x="12" y="13" width="31.987" height="31.987" fill="#D9D9D9"/>
</mask>
<g mask="url(#mask0_636_102)">
<path d="M18.6636 40.9885C17.9306 40.9885 17.3031 40.7275 16.7811 40.2055C16.2591 39.6835 15.998 39.056 15.998 38.3229V19.6639C15.998 18.9308 16.2591 18.3033 16.7811 17.7813C17.3031 17.2593 17.9306 16.9983 18.6636 16.9983H37.3227C38.0557 16.9983 38.6833 17.2593 39.2053 17.7813C39.7273 18.3033 39.9883 18.9308 39.9883 19.6639V28.5936C39.5662 28.3937 39.1331 28.2215 38.6888 28.0771C38.2446 27.9327 37.7892 27.8272 37.3227 27.7606V19.6639H18.6636V38.3229H26.727C26.7937 38.8116 26.8992 39.2781 27.0436 39.7224C27.1879 40.1666 27.3601 40.5887 27.56 40.9885H18.6636ZM18.6636 38.3229V19.6639V27.7606V27.6606V38.3229ZM21.3292 35.6574H26.7603C26.827 35.1909 26.9325 34.7355 27.0769 34.2913C27.2213 33.847 27.3823 33.4138 27.56 32.9918H21.3292V35.6574ZM21.3292 30.3262H29.4592C30.1701 29.6598 30.9642 29.1045 31.8416 28.6602C32.719 28.2159 33.6575 27.9161 34.6571 27.7606V27.6606H21.3292V30.3262ZM21.3292 24.995H34.6571V22.3295H21.3292V24.995ZM35.9899 43.6541C34.1462 43.6541 32.5746 43.0044 31.2752 41.7049C29.9757 40.4054 29.326 38.8339 29.326 36.9902C29.326 35.1465 29.9757 33.5749 31.2752 32.2754C32.5746 30.9759 34.1462 30.3262 35.9899 30.3262C37.8336 30.3262 39.4052 30.9759 40.7047 32.2754C42.0041 33.5749 42.6539 35.1465 42.6539 36.9902C42.6539 38.8339 42.0041 40.4054 40.7047 41.7049C39.4052 43.0044 37.8336 43.6541 35.9899 43.6541ZM35.3235 40.9885H36.6563V37.6566H39.9883V36.3238H36.6563V32.9918H35.3235V36.3238H31.9915V37.6566H35.3235V40.9885Z" fill="black"/>
</g>
</svg>
