<svg width="43" height="43" viewBox="0 0 43 43" fill="none" xmlns="http://www.w3.org/2000/svg">
<mask id="mask0_638_177" style="mask-type:alpha" maskUnits="userSpaceOnUse" x="0" y="0" width="43" height="43">
<rect width="43" height="43" fill="#D9D9D9"/>
</mask>
<g mask="url(#mask0_638_177)">
<path d="M33.8628 37.6251L24.0534 27.8157L27.816 24.0532L37.6253 33.8626L33.8628 37.6251ZM9.13783 37.6251L5.37533 33.8626L17.7378 21.5001L14.692 18.4543L13.4378 19.7084L11.1535 17.4241V21.097L9.89928 22.3512L4.47949 16.9314L5.73366 15.6772H9.40658L7.16699 13.4376L13.5274 7.0772C14.1246 6.47998 14.7666 6.04699 15.4535 5.77824C16.1403 5.50949 16.842 5.37511 17.5587 5.37511C18.2753 5.37511 18.9771 5.50949 19.6639 5.77824C20.3507 6.04699 20.9927 6.47998 21.5899 7.0772L17.4691 11.198L19.7087 13.4376L18.4545 14.6918L21.5003 17.7376L25.5316 13.7064C25.4121 13.3779 25.3151 13.0345 25.2404 12.6762C25.1658 12.3178 25.1285 11.9595 25.1285 11.6012C25.1285 9.83935 25.7331 8.35376 26.9425 7.14438C28.1519 5.93501 29.6375 5.33032 31.3993 5.33032C31.8472 5.33032 32.2727 5.37511 32.6758 5.4647C33.079 5.55428 33.4896 5.68866 33.9076 5.86782L29.4732 10.3022L32.6982 13.5272L37.1326 9.09282C37.3416 9.51088 37.4835 9.92147 37.5581 10.3246C37.6328 10.7277 37.6701 11.1532 37.6701 11.6012C37.6701 13.363 37.0654 14.8486 35.8561 16.0579C34.6467 17.2673 33.1611 17.872 31.3993 17.872C31.041 17.872 30.6826 17.8421 30.3243 17.7824C29.966 17.7227 29.6225 17.6182 29.2941 17.4689L9.13783 37.6251Z" fill="#00778B"/>
</g>
</svg>
