<svg width="43" height="43" viewBox="0 0 43 43" fill="none" xmlns="http://www.w3.org/2000/svg">
<mask id="mask0_638_202" style="mask-type:alpha" maskUnits="userSpaceOnUse" x="0" y="0" width="43" height="43">
<rect width="43" height="43" fill="#D9D9D9"/>
</mask>
<g mask="url(#mask0_638_202)">
<path d="M37.6707 19.7979V34.0417C37.6707 35.0271 37.3198 35.8707 36.6181 36.5724C35.9163 37.2741 35.0728 37.625 34.0874 37.625H9.00402C8.0186 37.625 7.17503 37.2741 6.47329 36.5724C5.77156 35.8707 5.42069 35.0271 5.42069 34.0417V19.7979C4.73388 19.1708 4.20385 18.3646 3.83058 17.3792C3.45732 16.3938 3.44985 15.3188 3.80819 14.1542L5.68944 8.0625C5.92833 7.28611 6.35385 6.6441 6.966 6.13646C7.57815 5.62882 8.28735 5.375 9.0936 5.375H33.9978C34.804 5.375 35.5058 5.62135 36.103 6.11406C36.7002 6.60677 37.1332 7.25625 37.4019 8.0625L39.2832 14.1542C39.6415 15.3188 39.6341 16.3788 39.2608 17.3344C38.8875 18.2899 38.3575 19.1111 37.6707 19.7979ZM25.4874 17.9167C26.2936 17.9167 26.9058 17.6405 27.3238 17.088C27.7419 16.5356 27.9061 15.916 27.8165 15.2292L26.8311 8.95833H23.3374V15.5875C23.3374 16.2146 23.5464 16.7595 23.9644 17.2224C24.3825 17.6852 24.8901 17.9167 25.4874 17.9167ZM17.4249 17.9167C18.1117 17.9167 18.6716 17.6852 19.1045 17.2224C19.5375 16.7595 19.754 16.2146 19.754 15.5875V8.95833H16.2603L15.2749 15.2292C15.1554 15.9458 15.3122 16.5729 15.7452 17.1104C16.1782 17.6479 16.738 17.9167 17.4249 17.9167ZM9.45194 17.9167C9.98944 17.9167 10.4597 17.7226 10.8629 17.3344C11.266 16.9462 11.5124 16.4535 11.6019 15.8562L12.5874 8.95833H9.0936L7.30194 14.9604C7.12277 15.5576 7.21982 16.1997 7.59308 16.8865C7.96635 17.5733 8.58596 17.9167 9.45194 17.9167ZM33.6394 17.9167C34.5054 17.9167 35.1325 17.5733 35.5207 16.8865C35.9089 16.1997 35.9985 15.5576 35.7894 14.9604L33.9082 8.95833H30.504L31.4894 15.8562C31.579 16.4535 31.8254 16.9462 32.2285 17.3344C32.6316 17.7226 33.1019 17.9167 33.6394 17.9167ZM9.00402 34.0417H34.0874V21.4104C33.938 21.4701 33.841 21.5 33.7962 21.5H33.6394C32.8332 21.5 32.124 21.3656 31.5118 21.0969C30.8997 20.8281 30.295 20.3951 29.6978 19.7979C29.1603 20.3354 28.5481 20.7535 27.8613 21.0521C27.1745 21.3507 26.4429 21.5 25.6665 21.5C24.8603 21.5 24.1063 21.3507 23.4045 21.0521C22.7028 20.7535 22.0832 20.3354 21.5457 19.7979C21.038 20.3354 20.4483 20.7535 19.7764 21.0521C19.1045 21.3507 18.3804 21.5 17.604 21.5C16.738 21.5 15.9542 21.3507 15.2525 21.0521C14.5507 20.7535 13.9311 20.3354 13.3936 19.7979C12.7665 20.425 12.1469 20.8655 11.5347 21.1193C10.9226 21.3731 10.2283 21.5 9.45194 21.5H9.25037C9.17572 21.5 9.0936 21.4701 9.00402 21.4104V34.0417Z" fill="#00778B"/>
</g>
</svg>
