<svg width="43" height="43" viewBox="0 0 43 43" fill="none" xmlns="http://www.w3.org/2000/svg">
<mask id="mask0_638_205" style="mask-type:alpha" maskUnits="userSpaceOnUse" x="0" y="0" width="43" height="43">
<rect width="43" height="43" fill="#D9D9D9"/>
</mask>
<g mask="url(#mask0_638_205)">
<path d="M3.58301 16.1251V10.7501C3.58301 9.76466 3.93388 8.92109 4.63561 8.21935C5.33735 7.51762 6.18092 7.16675 7.16634 7.16675H35.833C36.8184 7.16675 37.662 7.51762 38.3637 8.21935C39.0655 8.92109 39.4163 9.76466 39.4163 10.7501V20.6042H35.833V10.7501H7.16634V16.1251H3.58301ZM12.5413 30.4584C12.2129 30.4584 11.8993 30.3763 11.6007 30.2121C11.3021 30.0478 11.0781 29.8015 10.9288 29.473L7.83822 23.2917H3.58301V19.7084H8.95801C9.28648 19.7084 9.60002 19.7905 9.89863 19.9548C10.1972 20.119 10.4212 20.3654 10.5705 20.6938L12.5413 24.6355L18.0955 13.5272C18.2448 13.2286 18.4688 13.0046 18.7674 12.8553C19.066 12.706 19.3795 12.6313 19.708 12.6313C20.0365 12.6313 20.35 12.706 20.6486 12.8553C20.9472 13.0046 21.1712 13.2286 21.3205 13.5272L24.3215 19.5292C23.784 19.8577 23.2689 20.2011 22.7762 20.5595C22.2835 20.9178 21.8281 21.3209 21.4101 21.7688L19.708 18.3647L14.1538 29.473C14.0045 29.8015 13.7806 30.0478 13.482 30.2121C13.1834 30.3763 12.8698 30.4584 12.5413 30.4584ZM19.1257 35.8334H7.16634C6.18092 35.8334 5.33735 35.4825 4.63561 34.7808C3.93388 34.0791 3.58301 33.2355 3.58301 32.2501V26.8751H7.16634V32.2501H18.0507C18.1403 32.8772 18.2747 33.4893 18.4538 34.0865C18.633 34.6838 18.857 35.2661 19.1257 35.8334ZM30.458 39.4167C27.9795 39.4167 25.8669 38.5433 24.12 36.7964C22.3731 35.0496 21.4997 32.9369 21.4997 30.4584C21.4997 27.9799 22.3731 25.8673 24.12 24.1204C25.8669 22.3735 27.9795 21.5001 30.458 21.5001C32.9365 21.5001 35.0492 22.3735 36.796 24.1204C38.5429 25.8673 39.4163 27.9799 39.4163 30.4584C39.4163 32.9369 38.5429 35.0496 36.796 36.7964C35.0492 38.5433 32.9365 39.4167 30.458 39.4167ZM30.8163 31.3542L34.8924 27.2782L33.6382 26.024L29.5622 30.1001L30.8163 31.3542Z" fill="#00778B"/>
</g>
</svg>
