<svg width="43" height="43" viewBox="0 0 43 43" fill="none" xmlns="http://www.w3.org/2000/svg">
<mask id="mask0_638_208" style="mask-type:alpha" maskUnits="userSpaceOnUse" x="0" y="0" width="43" height="43">
<rect width="43" height="43" fill="#D9D9D9"/>
</mask>
<g mask="url(#mask0_638_208)">
<path d="M21.5003 41.2084C18.1559 41.2084 15.0802 40.447 12.2732 38.924C9.4663 37.4011 7.16699 35.3706 5.37533 32.8324V37.6251H1.79199V26.8751H12.542V30.4584H8.10762C9.54095 32.6084 11.4297 34.3404 13.7738 35.6542C16.1179 36.9681 18.6934 37.6251 21.5003 37.6251C23.7399 37.6251 25.8377 37.1996 27.7936 36.3485C29.7495 35.4975 31.4515 34.3478 32.8998 32.8996C34.3481 31.4513 35.4977 29.7492 36.3488 27.7933C37.1998 25.8374 37.6253 23.7397 37.6253 21.5001H41.2087C41.2087 24.2174 40.6936 26.7706 39.6633 29.1595C38.6331 31.5483 37.2222 33.6386 35.4305 35.4303C33.6389 37.222 31.5486 38.6329 29.1597 39.6631C26.7708 40.6933 24.2177 41.2084 21.5003 41.2084ZM19.8878 34.0417V31.7126C18.4844 31.3841 17.3422 30.7794 16.4613 29.8985C15.5804 29.0176 14.9309 27.8605 14.5128 26.4272L17.4691 25.2626C17.8274 26.4869 18.3873 27.4051 19.1488 28.0173C19.9102 28.6294 20.7837 28.9355 21.7691 28.9355C22.7545 28.9355 23.5981 28.7041 24.2998 28.2412C25.0015 27.7784 25.3524 27.0542 25.3524 26.0688C25.3524 25.2029 24.9866 24.5011 24.255 23.9636C23.5234 23.4261 22.217 22.814 20.3357 22.1272C18.5739 21.5001 17.2824 20.7536 16.4613 19.8876C15.6401 19.0216 15.2295 17.8869 15.2295 16.4834C15.2295 15.2591 15.655 14.1468 16.5061 13.1464C17.3571 12.1461 18.5142 11.4966 19.9774 11.198V8.95842H23.1128V11.198C24.1878 11.2876 25.1658 11.7206 26.0467 12.497C26.9276 13.2733 27.5323 14.1841 27.8607 15.2292L24.9941 16.3938C24.7552 15.707 24.367 15.1322 23.8295 14.6694C23.292 14.2065 22.5455 13.9751 21.5899 13.9751C20.5448 13.9751 19.746 14.199 19.1936 14.647C18.6411 15.0949 18.3649 15.707 18.3649 16.4834C18.3649 17.2598 18.7083 17.872 19.3951 18.3199C20.0819 18.7678 21.3212 19.2904 23.1128 19.8876C25.2628 20.664 26.6962 21.5747 27.4128 22.6199C28.1295 23.665 28.4878 24.8147 28.4878 26.0688C28.4878 26.9348 28.3385 27.6963 28.0399 28.3532C27.7413 29.0102 27.3456 29.57 26.8529 30.0329C26.3602 30.4957 25.7854 30.869 25.1285 31.1527C24.4715 31.4364 23.7698 31.6529 23.0232 31.8022V34.0417H19.8878ZM1.79199 21.5001C1.79199 18.7827 2.3071 16.2296 3.3373 13.8407C4.36751 11.4518 5.77845 9.36154 7.57012 7.56987C9.36178 5.77821 11.4521 4.36727 13.841 3.33706C16.2298 2.30685 18.783 1.79175 21.5003 1.79175C24.8448 1.79175 27.9205 2.55321 30.7274 4.07612C33.5344 5.59904 35.8337 7.6296 37.6253 10.1678V5.37508H41.2087V16.1251H30.4587V12.5417H34.893C33.4597 10.3917 31.571 8.6598 29.2269 7.34592C26.8828 6.03203 24.3073 5.37508 21.5003 5.37508C19.2607 5.37508 17.163 5.8006 15.2071 6.65164C13.2512 7.50269 11.5491 8.65234 10.1008 10.1006C8.65258 11.5489 7.50293 13.2509 6.65189 15.2069C5.80085 17.1628 5.37533 19.2605 5.37533 21.5001H1.79199Z" fill="#00778B"/>
</g>
</svg>
