<svg width="55" height="55" viewBox="0 0 55 55" fill="none" xmlns="http://www.w3.org/2000/svg">
<circle cx="27.5" cy="27.5" r="27.5" fill="#96F4FF"/>
<mask id="mask0_636_105" style="mask-type:alpha" maskUnits="userSpaceOnUse" x="12" y="11" width="32" height="33">
<rect x="12" y="11.675" width="31.987" height="31.987" fill="#D9D9D9"/>
</mask>
<g mask="url(#mask0_636_105)">
<path d="M27.8268 38.3308C27.9156 38.3308 28.0045 38.3086 28.0933 38.2642C28.1822 38.2198 28.2488 38.1753 28.2932 38.1309L39.2221 27.202C39.4887 26.9355 39.6831 26.6356 39.8052 26.3024C39.9274 25.9692 39.9885 25.636 39.9885 25.3028C39.9885 24.9474 39.9274 24.6086 39.8052 24.2865C39.6831 23.9644 39.4887 23.6812 39.2221 23.4369L33.5578 17.7725C33.3134 17.506 33.0302 17.3116 32.7081 17.1894C32.386 17.0672 32.0473 17.0062 31.6919 17.0062C31.3587 17.0062 31.0255 17.0672 30.6923 17.1894C30.3591 17.3116 30.0592 17.506 29.7926 17.7725L29.4261 18.139L31.8918 20.638C32.225 20.949 32.4693 21.3044 32.6248 21.7042C32.7803 22.1041 32.8581 22.5261 32.8581 22.9704C32.8581 23.9034 32.5415 24.6864 31.9084 25.3194C31.2754 25.9525 30.4923 26.2691 29.5594 26.2691C29.1151 26.2691 28.6875 26.1913 28.2766 26.0358C27.8656 25.8803 27.5047 25.6471 27.1937 25.3361L24.6947 22.8704L18.8637 28.7014C18.7971 28.768 18.7471 28.8402 18.7138 28.918C18.6805 28.9957 18.6638 29.079 18.6638 29.1679C18.6638 29.3456 18.7305 29.5066 18.8637 29.651C18.997 29.7954 19.1525 29.8676 19.3302 29.8676C19.4191 29.8676 19.5079 29.8454 19.5968 29.801C19.6856 29.7565 19.7523 29.7121 19.7967 29.6677L24.3282 25.1362L26.1941 27.0021L21.6959 31.5336C21.6293 31.6002 21.5793 31.6724 21.546 31.7502C21.5127 31.8279 21.496 31.9112 21.496 32.0001C21.496 32.1778 21.5626 32.3333 21.6959 32.4665C21.8292 32.5998 21.9847 32.6665 22.1624 32.6665C22.2513 32.6665 22.3401 32.6442 22.429 32.5998C22.5178 32.5554 22.5845 32.511 22.6289 32.4665L27.1604 27.9684L29.0263 29.8343L24.5281 34.3658C24.4615 34.4102 24.4115 34.4768 24.3782 34.5657C24.3448 34.6545 24.3282 34.7434 24.3282 34.8322C24.3282 35.0099 24.3948 35.1654 24.5281 35.2987C24.6614 35.432 24.8169 35.4986 24.9946 35.4986C25.0834 35.4986 25.1667 35.482 25.2445 35.4487C25.3222 35.4153 25.3944 35.3654 25.4611 35.2987L29.9926 30.8005L31.8585 32.6665L27.327 37.1979C27.2603 37.2646 27.2104 37.3368 27.177 37.4145C27.1437 37.4923 27.1271 37.5756 27.1271 37.6644C27.1271 37.8421 27.1992 37.9976 27.3436 38.1309C27.488 38.2642 27.6491 38.3308 27.8268 38.3308ZM27.7934 40.9964C26.9716 40.9964 26.2441 40.7243 25.611 40.1801C24.9779 39.6358 24.6059 38.9528 24.4948 38.1309C23.7395 38.0198 23.1065 37.7088 22.5956 37.1979C22.0847 36.687 21.7737 36.054 21.6626 35.2987C20.9074 35.1877 20.2798 34.8711 19.78 34.3491C19.2802 33.8271 18.9748 33.1996 18.8637 32.4665C18.0196 32.3555 17.331 31.989 16.7979 31.367C16.2648 30.745 15.9982 30.012 15.9982 29.1679C15.9982 28.7236 16.0815 28.296 16.2481 27.8851C16.4147 27.4741 16.6535 27.1132 16.9645 26.8022L24.6947 19.1053L29.0596 23.4702C29.104 23.5368 29.1707 23.5868 29.2595 23.6201C29.3484 23.6535 29.4372 23.6701 29.5261 23.6701C29.726 23.6701 29.8926 23.609 30.0259 23.4869C30.1591 23.3647 30.2258 23.2036 30.2258 23.0037C30.2258 22.9149 30.2091 22.826 30.1758 22.7372C30.1425 22.6483 30.0925 22.5817 30.0259 22.5372L25.2611 17.7725C25.0168 17.506 24.7336 17.3116 24.4115 17.1894C24.0894 17.0672 23.7506 17.0062 23.3952 17.0062C23.062 17.0062 22.7288 17.0672 22.3956 17.1894C22.0624 17.3116 21.7626 17.506 21.496 17.7725L16.7979 22.5039C16.598 22.7038 16.4314 22.9371 16.2981 23.2036C16.1648 23.4702 16.076 23.7368 16.0316 24.0033C15.9871 24.2699 15.9871 24.542 16.0316 24.8196C16.076 25.0973 16.1648 25.3583 16.2981 25.6027L14.3656 27.5352C13.988 27.0243 13.7103 26.4634 13.5326 25.8526C13.3549 25.2417 13.2882 24.6253 13.3327 24.0033C13.3771 23.3813 13.5326 22.776 13.7991 22.1874C14.0657 21.5987 14.4322 21.0712 14.8987 20.6047L19.5968 15.9066C20.1299 15.3957 20.7241 15.007 21.3794 14.7404C22.0347 14.4739 22.7066 14.3406 23.3952 14.3406C24.0838 14.3406 24.7558 14.4739 25.4111 14.7404C26.0664 15.007 26.6495 15.3957 27.1604 15.9066L27.5269 16.2731L27.8934 15.9066C28.4265 15.3957 29.0207 15.007 29.676 14.7404C30.3313 14.4739 31.0033 14.3406 31.6919 14.3406C32.3805 14.3406 33.0524 14.4739 33.7077 14.7404C34.363 15.007 34.9461 15.3957 35.457 15.9066L41.088 21.5376C41.5989 22.0486 41.9877 22.6372 42.2542 23.3036C42.5208 23.97 42.6541 24.6475 42.6541 25.3361C42.6541 26.0247 42.5208 26.6967 42.2542 27.3519C41.9877 28.0072 41.5989 28.5903 41.088 29.1012L30.1592 39.9968C29.8482 40.3078 29.4872 40.5521 29.0763 40.7298C28.6653 40.9075 28.2377 40.9964 27.7934 40.9964Z" fill="black"/>
</g>
</svg>
