<svg width="122" height="10" viewBox="0 0 122 10" fill="none" xmlns="http://www.w3.org/2000/svg">
<g id="Group">
<path id="Vector" d="M0.424561 0.75827H0.805392V9.30307H0.424561V0.75827Z" fill="#1A3643"/>
<path id="Vector_2" d="M8.4103 4.90723H7.49045V7.72219H7.07446V1.91595H7.49045V4.51348H8.4103L10.5371 1.91595H11.0703L8.78527 4.70154L11.2812 7.72219H10.7422L8.4103 4.90723Z" fill="#1A3643"/>
<path id="Vector_3" d="M15.4116 7.32257V7.72219H12.1541V1.91595H15.3179V2.31558H12.57V4.5076H15.107V4.90134H12.57V7.32257H15.4116Z" fill="#1A3643"/>
<path id="Vector_4" d="M18.6868 5.42437V7.72219H18.2591V5.42437L16.0796 1.91595H16.5424L18.4818 5.02476L20.4328 1.91595H20.8956L18.6927 5.42437H18.6868Z" fill="#1A3643"/>
<path id="Vector_5" d="M27.1999 2.31552H25.3543V7.72801H24.9383V2.31552H23.0928V1.92178H27.2057V2.31552H27.1999Z" fill="#1A3643"/>
<path id="Vector_6" d="M27.5338 4.82487C27.5338 3.11474 28.7876 1.82773 30.5336 1.82773C32.2795 1.82773 33.5334 3.11474 33.5334 4.82487C33.5334 6.53501 32.2795 7.81614 30.5336 7.81614C28.7876 7.81614 27.5338 6.52913 27.5338 4.82487ZM33.1057 4.82487C33.1057 3.34981 32.0276 2.2391 30.5336 2.2391C29.0396 2.2391 27.9557 3.35569 27.9557 4.82487C27.9557 6.29406 29.0337 7.40477 30.5336 7.40477C32.0335 7.40477 33.1057 6.29994 33.1057 4.82487Z" fill="#1A3643"/>
<path id="Vector_7" d="M38.8826 5.42437V7.72219H38.4549V5.42437L36.2754 1.91595H36.7382L38.6775 5.02476L40.6286 1.91595H41.0914L38.8885 5.42437H38.8826Z" fill="#1A3643"/>
<path id="Vector_8" d="M41.396 4.82487C41.396 3.11474 42.6498 1.82773 44.3958 1.82773C46.1417 1.82773 47.3955 3.11474 47.3955 4.82487C47.3955 6.53501 46.1417 7.81614 44.3958 7.81614C42.6498 7.81614 41.396 6.52913 41.396 4.82487ZM46.9678 4.82487C46.9678 3.34981 45.8898 2.2391 44.3958 2.2391C42.9017 2.2391 41.8178 3.35569 41.8178 4.82487C41.8178 6.29406 42.8959 7.40477 44.3958 7.40477C45.8957 7.40477 46.9678 6.29994 46.9678 4.82487Z" fill="#1A3643"/>
<path id="Vector_9" d="M48.6141 5.57718V1.91595H49.036V5.54779C49.036 6.63499 49.7742 7.39309 50.8171 7.39309C51.86 7.39309 52.5923 6.63499 52.5923 5.54779V1.91595H53.0142V5.57718C53.0142 6.87594 52.0826 7.80446 50.8171 7.80446C49.5516 7.80446 48.6141 6.87594 48.6141 5.57718Z" fill="#1A3643"/>
<path id="Vector_10" d="M56.6997 5.28334H55.0709V7.72219H54.6549V1.91595H56.7876C57.8246 1.91595 58.5863 2.62117 58.5863 3.60259C58.5863 4.45472 58.0004 5.10703 57.1508 5.24807L58.6156 7.71631H58.141L56.6938 5.27746L56.6997 5.28334ZM55.0709 4.88371H56.77C57.5961 4.88371 58.1644 4.34306 58.1644 3.60259C58.1644 2.86212 57.5902 2.31558 56.77 2.31558H55.0709V4.88371Z" fill="#1A3643"/>
<path id="Vector_11" d="M66.4957 1.91595V7.72219H66.0797V4.90723H62.6053V7.72219H62.1893V1.91595H62.6053V4.5076H66.0797V1.91595H66.4957Z" fill="#1A3643"/>
<path id="Vector_12" d="M71.7043 6.13546H68.6459L67.978 7.72219H67.5327L69.9583 1.91595H70.3333L72.8292 7.72219H72.3781L71.6984 6.13546H71.7043ZM68.8041 5.7476H71.5402L70.1575 2.50363L68.8041 5.7476Z" fill="#1A3643"/>
<path id="Vector_13" d="M77.7216 3.70244C77.7216 4.72499 76.9307 5.48897 75.8702 5.48897H74.3V7.72801H73.884V1.92178H75.8761C76.9248 1.92178 77.7275 2.67988 77.7275 3.70244H77.7216ZM77.2998 3.70244C77.2998 2.91495 76.6905 2.32728 75.8526 2.32728H74.3V5.08347H75.8526C76.6846 5.08347 77.2998 4.4958 77.2998 3.70244Z" fill="#1A3643"/>
<path id="Vector_14" d="M82.7016 3.70244C82.7016 4.72499 81.9107 5.48897 80.8502 5.48897H79.28V7.72801H78.864V1.92178H80.856C81.9048 1.92178 82.7075 2.67988 82.7075 3.70244H82.7016ZM82.2798 3.70244C82.2798 2.91495 81.6704 2.32728 80.8326 2.32728H79.28V5.08347H80.8326C81.6646 5.08347 82.2798 4.4958 82.2798 3.70244Z" fill="#1A3643"/>
<path id="Vector_15" d="M85.7481 5.42437V7.72219H85.3204V5.42437L83.1409 1.91595H83.6037L85.543 5.02476L87.4941 1.91595H87.9569L85.7539 5.42437H85.7481Z" fill="#1A3643"/>
<path id="Vector_16" d="M94.9349 3.70244C94.9349 4.72499 94.1439 5.48897 93.0835 5.48897H91.5133V7.72801H91.0973V1.92178H93.0893C94.1381 1.92178 94.9408 2.67988 94.9408 3.70244H94.9349ZM94.513 3.70244C94.513 2.91495 93.9037 2.32728 93.0659 2.32728H91.5133V5.08347H93.0659C93.8979 5.08347 94.513 4.4958 94.513 3.70244Z" fill="#1A3643"/>
<path id="Vector_17" d="M99.2296 7.32844V7.72219H96.0775V1.91595H96.4935V7.32844H99.2296Z" fill="#1A3643"/>
<path id="Vector_18" d="M103.764 6.13546H100.706L100.038 7.72219H99.5928L102.018 1.91595H102.393L104.889 7.72219H104.438L103.758 6.13546H103.764ZM100.864 5.7476H103.6L102.218 2.50363L100.864 5.7476Z" fill="#1A3643"/>
<path id="Vector_19" d="M105.34 4.82487C105.34 3.08536 106.577 1.82773 108.293 1.82773C109.588 1.82773 110.608 2.56233 110.983 3.7318H110.555C110.197 2.7974 109.36 2.2391 108.293 2.2391C106.823 2.2391 105.762 3.31455 105.762 4.82487C105.762 6.3352 106.817 7.39888 108.293 7.39888C109.389 7.39888 110.244 6.80534 110.596 5.80629H111.018C110.649 7.04628 109.612 7.80438 108.287 7.80438C106.565 7.80438 105.335 6.55851 105.335 4.81899L105.34 4.82487Z" fill="#1A3643"/>
<path id="Vector_20" d="M115.453 7.32257V7.72219H112.195V1.91595H115.359V2.31558H112.611V4.5076H115.148V4.90134H112.611V7.32257H115.453Z" fill="#1A3643"/>
<path id="Vector_21" d="M121.253 0.758209H121.634V9.30301H121.253V0.758209Z" fill="#1A3643"/>
</g>
</svg>
